<svg width="25" height="25" viewBox="0 0 25 25" fill="none" xmlns="http://www.w3.org/2000/svg">
<path d="M12.5004 17.7085L13.5421 15.6251V10.2689C15.3348 9.80324 16.6671 8.18553 16.6671 6.25012C16.6671 3.9522 14.7983 2.08345 12.5004 2.08345C10.2025 2.08345 8.33374 3.9522 8.33374 6.25012C8.33374 8.18553 9.66603 9.80324 11.4587 10.2689V15.6251L12.5004 17.7085ZM10.4171 6.25012C10.4171 5.10116 11.3514 4.16678 12.5004 4.16678C13.6494 4.16678 14.5837 5.10116 14.5837 6.25012C14.5837 7.39908 13.6494 8.33345 12.5004 8.33345C11.3514 8.33345 10.4171 7.39908 10.4171 6.25012Z" fill="#3955B4"/>
<path d="M16.9454 11.0031L16.3902 13.0115C19.0892 13.7573 20.834 15.1917 20.834 16.6667C20.834 18.6375 17.4121 20.8334 12.5007 20.8334C7.58919 20.8334 4.16732 18.6375 4.16732 16.6667C4.16732 15.1917 5.91211 13.7573 8.61211 13.0104L8.0569 11.0021C4.37253 12.0209 2.08398 14.1906 2.08398 16.6667C2.08398 20.1709 6.66003 22.9167 12.5007 22.9167C18.3413 22.9167 22.9173 20.1709 22.9173 16.6667C22.9173 14.1906 20.6288 12.0209 16.9454 11.0031Z" fill="#3955B4"/>
</svg>
